<svg id="f9a3e955-32cd-452d-b670-c541c40fd14f" data-name="Layer 1" xmlns="http://www.w3.org/2000/svg" viewBox="0 0 73.9449 76.2084"><title>favicon</title><path d="M266.55,232.2536l-7.5261-.62,2.7862-7.0189a18.1205,18.1205,0,0,1,1.6845-3.22,35.5468,35.5468,0,1,0,12.4094,9.11A18.0916,18.0916,0,0,1,266.55,232.2536Z" transform="translate(-213.7218 -213.1766)" style="fill:#ed8f20"/><circle cx="55.8609" cy="27.3544" r="2.9578" style="fill:#ef771d"/><circle cx="63.7287" cy="43.8515" r="2.9578" style="fill:#ef771d"/><circle cx="63.2554" cy="34.7489" r="2.9578" style="fill:#ef771d"/><circle cx="54.317" cy="40.7133" r="2.9578" style="fill:#ef771d"/><circle cx="55.8609" cy="51.0168" r="2.9578" style="fill:#ef771d"/><circle cx="29.2408" cy="15.5233" r="2.9578" style="fill:#ef771d"/><circle cx="18.8885" cy="19.96" r="2.9578" style="fill:#ef771d"/><path d="M253.652,230.2275s6.2853,1.0353,7.9861,5.3241" transform="translate(-213.7218 -213.1766)" style="fill:#ed8f20"/><path d="M261.6381,237.0319a1.4823,1.4823,0,0,1-1.3754-.9346c-1.368-3.4473-6.8015-4.4012-6.8547-4.41a1.4787,1.4787,0,0,1,.4821-2.9179c.2914.0474,7.1342,1.229,9.1219,6.238a1.48,1.48,0,0,1-.83,1.92A1.4644,1.4644,0,0,1,261.6381,237.0319Z" transform="translate(-213.7218 -213.1766)" style="fill:#9b6026"/><path d="M254.5394,234.6642a14.4876,14.4876,0,0,1,5.6005-3.7963" transform="translate(-213.7218 -213.1766)" style="fill:#ed8f20"/><path d="M254.5379,236.1431a1.4781,1.4781,0,0,1-1.0929-2.4742,15.9875,15.9875,0,0,1,6.1759-4.1867,1.4786,1.4786,0,1,1,1.04,2.7685,13.0078,13.0078,0,0,0-5.0282,3.4073A1.472,1.472,0,0,1,254.5379,236.1431Z" transform="translate(-213.7218 -213.1766)" style="fill:#9b6026"/><path d="M287.6667,213.8576l-7.5261-.62a18.1228,18.1228,0,0,0-18.331,11.3772l-2.7862,7.0189,7.5261.62A18.1237,18.1237,0,0,0,284.88,220.8765Z" transform="translate(-213.7218 -213.1766)" style="fill:#659c35"/><path d="M259.853,229.5458l-.83,2.09,1.0618.0873c9.255-9.0376,19.3129-12.0042,20.4132-12.0737l.0518-.8267.6108.6108.2337-.877-.6567-.6286C279.8536,217.7323,269.5236,220.5851,259.853,229.5458Z" transform="translate(-213.7218 -213.1766)" style="fill:#88c057"/></svg>