<svg id="5b026fd7-2718-4077-bef3-134f943174b0" data-name="Layer 1" xmlns="http://www.w3.org/2000/svg" viewBox="0 0 461.3333 139.7578"><title>foodify</title><text transform="translate(0 109.4395)" style="font-size:128px;fill:#333;font-family:Raleway-Regular, Raleway"><tspan style="letter-spacing:-0.0219879150390625em">F</tspan><tspan x="72.5762" y="0" xml:space="preserve">     </tspan></text><path d="M156.5533,219.2664c-3.64-2.42-10.4665-5.7885-17.0371-2.718a.9934.9934,0,0,1-1.4263-.89v-6.26a2.4276,2.4276,0,0,0-2.1117-2.6413h-3.17a2.43,2.43,0,0,0-2.1131,2.6413v6.6566a.9652.9652,0,0,1-1.1436.9775,22.5031,22.5031,0,0,0-16.2718,2.6546,1.0034,1.0034,0,0,0,.6616,1.8442c3.0941-.5871,7.1663-.9908,9.9182.1361a1.0138,1.0138,0,0,1,.1768,1.7584,22.5243,22.5243,0,0,0-7.9234,9.9633.97.97,0,0,0,1.5014,1.1447c3.0125-2.574,7.9648-6.06,12.1713-5.5137a1.0016,1.0016,0,0,1,.8911.9991c-.043,2.9187-.01,12.8957,2.3268,16.67a.944.944,0,0,0,1.5927.0518c1.486-2.1176,4.7061-7.73,4.5787-16.4945a1.02,1.02,0,0,1,1.0556-1.0445,16.5866,16.5866,0,0,1,10.9648,4.6291.9976.9976,0,0,0,1.7017-.813c-.3256-2.566-1.7036-6.4111-6.5959-9.3982a1.0084,1.0084,0,0,1,.221-1.8338,34.5927,34.5927,0,0,1,9.4734-.68A1.0048,1.0048,0,0,0,156.5533,219.2664Z" transform="translate(-25 -170.5605)" style="fill:#88c057"/><path d="M158.087,221.5321a1.032,1.032,0,0,0-.4643-.1775c-.5916-.0724-1.1846-.1405-1.7762-.22-.2115-.0207-.4244-.037-.6344-.0577a35,35,0,0,0-8.6457.701.9976.9976,0,0,0-.2588,1.84c5.1126,3.01,6.5234,6.89,6.8473,9.4546a.994.994,0,0,1-1.6771.8474,17.56,17.56,0,0,0-11.5324-4.7236,1,1,0,0,0-1.0308,1.0263,27.3345,27.3345,0,0,1-4.7487,16.5149.9989.9989,0,0,1-1.652-.0518c-2.4209-3.77-2.4579-13.7286-2.4135-16.66a1.0074,1.0074,0,0,0-.8977-1.0056c-4.3687-.565-9.52,2.9311-12.65,5.51a.9948.9948,0,0,1-1.5573-1.1446,22.7382,22.7382,0,0,1,8.2109-9.9574.9963.9963,0,0,0-.1893-1.76,9.5543,9.5543,0,0,0-1.7792-.4792,1.0852,1.0852,0,0,0-.346-.0059A84.8084,84.8084,0,0,0,110.363,223.27a1.0612,1.0612,0,0,0-.4111.213,32.9791,32.9791,0,0,0-12.2852,25.3719c0,18.961,16.849,34.3312,37.632,34.3312s37.632-15.37,37.632-34.3312C172.9322,237.7083,167.1083,227.8026,158.087,221.5321Z" transform="translate(-25 -170.5605)" style="fill:#d13834"/><path d="M105.65,257.981a1.4758,1.4758,0,0,1-1.2734-.7246,16.7526,16.7526,0,0,1-2.1547-6.1315,1.4791,1.4791,0,1,1,2.9267-.43,13.9868,13.9868,0,0,0,1.7732,5.0549,1.4776,1.4776,0,0,1-1.2718,2.2316Z" transform="translate(-25 -170.5605)" style="fill:#ed7161"/><path d="M103.8706,246.212c-.034,0-.0695-.0015-.1035-.0045a1.4784,1.4784,0,0,1-1.3739-1.5765,20.7875,20.7875,0,0,1,1.1994-5.67,1.4794,1.4794,0,0,1,2.7789,1.016,17.74,17.74,0,0,0-1.0264,4.8582A1.4793,1.4793,0,0,1,103.8706,246.212Z" transform="translate(-25 -170.5605)" style="fill:#ed7161"/><path d="M236.55,227.2536l-7.5261-.62,2.7862-7.0189a18.1205,18.1205,0,0,1,1.6845-3.22,35.5468,35.5468,0,1,0,12.4094,9.11A18.0916,18.0916,0,0,1,236.55,227.2536Z" transform="translate(-25 -170.5605)" style="fill:#ed8f20"/><circle cx="214.5827" cy="64.9705" r="2.9578" style="fill:#ef771d"/><circle cx="222.4504" cy="81.4676" r="2.9578" style="fill:#ef771d"/><circle cx="221.9772" cy="72.365" r="2.9578" style="fill:#ef771d"/><circle cx="213.0387" cy="78.3293" r="2.9578" style="fill:#ef771d"/><circle cx="214.5827" cy="88.6328" r="2.9578" style="fill:#ef771d"/><circle cx="187.9625" cy="53.1393" r="2.9578" style="fill:#ef771d"/><circle cx="177.6103" cy="57.576" r="2.9578" style="fill:#ef771d"/><path d="M223.652,225.2275s6.2853,1.0353,7.9861,5.3241" transform="translate(-25 -170.5605)" style="fill:#ed8f20"/><path d="M231.6381,232.0319a1.4823,1.4823,0,0,1-1.3754-.9346c-1.368-3.4473-6.8015-4.4012-6.8547-4.41a1.4787,1.4787,0,0,1,.4821-2.9179c.2914.0474,7.1342,1.229,9.1219,6.238a1.48,1.48,0,0,1-.83,1.92A1.4644,1.4644,0,0,1,231.6381,232.0319Z" transform="translate(-25 -170.5605)" style="fill:#9b6026"/><path d="M224.5394,229.6642a14.4876,14.4876,0,0,1,5.6005-3.7963" transform="translate(-25 -170.5605)" style="fill:#ed8f20"/><path d="M224.5379,231.1431a1.4781,1.4781,0,0,1-1.0929-2.4742,15.9875,15.9875,0,0,1,6.1759-4.1867,1.4786,1.4786,0,1,1,1.04,2.7685,13.0078,13.0078,0,0,0-5.0282,3.4073A1.472,1.472,0,0,1,224.5379,231.1431Z" transform="translate(-25 -170.5605)" style="fill:#9b6026"/><path d="M257.6667,208.8576l-7.5261-.62a18.1228,18.1228,0,0,0-18.331,11.3772l-2.7862,7.0189,7.5261.62A18.1237,18.1237,0,0,0,254.88,215.8765Z" transform="translate(-25 -170.5605)" style="fill:#659c35"/><path d="M229.853,224.5458l-.83,2.09,1.0618.0873c9.255-9.0376,19.3129-12.0042,20.4132-12.0737l.0518-.8267.6108.6108.2337-.877-.6567-.6286C249.8536,212.7323,239.5236,215.5851,229.853,224.5458Z" transform="translate(-25 -170.5605)" style="fill:#88c057"/><text transform="translate(235 111.2129)" style="font-size:128px;fill:#333;font-family:Raleway-Regular, Raleway">dif<tspan x="149.7559" y="0" style="letter-spacing:-0.0269927978515625em">y</tspan></text></svg>